<?xml version="1.0" standalone="no"?>
<!DOCTYPE svg PUBLIC "-//W3C//DTD SVG 20010904//EN"
 "http://www.w3.org/TR/2001/REC-SVG-20010904/DTD/svg10.dtd">
<svg version="1.0" xmlns="http://www.w3.org/2000/svg"
 width="315.000000pt" height="480.000000pt" viewBox="0 0 315.000000 480.000000"
 preserveAspectRatio="xMidYMid meet">
<metadata>
Created by potrace 1.13, written by Peter Selinger 2001-2015
</metadata>
<g transform="translate(0.000000,480.000000) scale(0.100000,-0.100000)"
fill="#000000" stroke="none">
<path d="M3116 4707 c0 -50 4 -99 8 -108 4 -10 2 -20 -3 -24 -6 -3 -8 -12 -4
-18 9 -15 12 -77 4 -77 -3 0 -3 -35 0 -77 4 -43 7 -361 8 -708 1 -346 4 -853
5 -1125 1 -272 -1 -499 -5 -505 -13 -18 -17 -104 -4 -99 17 7 6 -79 -13 -94
-9 -6 -37 -12 -62 -12 -61 0 -74 -15 -95 -115 -10 -44 -37 -150 -60 -235 -39
-142 -75 -336 -90 -485 -10 -107 -6 -415 9 -609 14 -176 14 -191 -2 -204 -9
-7 -11 -11 -4 -7 7 4 11 3 10 -2 -1 -4 3 -18 10 -29 6 -12 9 -23 7 -26 -2 -2
4 -4 15 -4 10 0 17 4 14 7 -2 4 5 14 16 22 11 7 17 17 12 22 -4 5 -1 5 6 1 10
-6 10 -11 1 -22 -11 -13 -2 -19 24 -15 4 0 7 -8 7 -19 0 -11 -5 -20 -11 -20
-5 0 -8 4 -5 9 3 5 -1 12 -10 15 -8 3 -12 2 -9 -4 3 -6 2 -10 -3 -10 -5 0 -9
-10 -8 -22 1 -18 -5 -24 -27 -26 -25 -3 -28 -7 -23 -27 4 -14 1 -25 -6 -27 -6
-2 -9 -10 -7 -17 4 -11 9 -10 22 4 12 11 15 24 11 38 -6 19 -5 20 10 8 9 -7
16 -19 16 -26 0 -6 7 -12 16 -12 10 0 14 7 11 19 -4 13 0 18 14 18 10 0 19 5
19 11 0 6 -7 8 -16 5 -8 -3 -12 -2 -9 3 3 6 14 9 25 8 10 -1 17 -3 15 -6 -3
-2 1 -11 8 -19 9 -13 9 -14 0 -8 -7 4 -21 2 -30 -4 -16 -10 -16 -11 -1 -6 9 2
22 -2 29 -10 10 -12 9 -13 -5 -8 -9 3 -16 2 -16 -3 0 -5 9 -9 21 -10 14 -1 19
3 15 12 -3 8 -1 17 4 20 6 4 10 -1 10 -10 0 -10 6 -15 13 -12 7 3 21 -1 32 -9
10 -8 24 -14 29 -14 6 0 4 5 -4 10 -9 6 -10 10 -3 10 6 0 14 -4 17 -8 2 -4 21
-9 40 -10 l36 -3 0 2401 c0 2278 -1 2400 -18 2400 -15 0 -17 -11 -16 -93z
m-56 -2917 c0 -3 -25 -68 -55 -145 -50 -128 -99 -282 -108 -344 -4 -24 -27
-43 -27 -22 0 13 53 210 73 271 9 25 18 61 22 80 4 19 16 65 28 102 18 59 24
67 44 66 13 -2 23 -5 23 -8z m43 -12 c-4 -13 -7 -36 -6 -53 1 -16 -10 -64 -24
-105 -44 -130 -62 -200 -52 -200 15 0 10 -30 -7 -37 -8 -3 -13 -12 -10 -20 8
-19 -24 -30 -35 -12 -6 10 -9 5 -9 -17 0 -34 -18 -48 -41 -33 -11 7 -12 12 -1
29 6 11 12 28 12 37 0 18 42 151 60 188 10 21 90 236 90 242 0 2 7 3 16 3 12
0 13 -5 7 -22z"/>
<path d="M220 4568 l0 -129 90 3 c112 4 124 22 18 26 l-78 3 0 44 0 45 70 0
c56 0 70 3 70 15 0 12 -14 15 -70 15 l-70 0 0 40 0 40 75 0 c61 0 75 3 75 16
0 13 -15 15 -90 13 l-90 -2 0 -129z"/>
<path d="M2740 4655 c0 -42 -2 -45 -19 -35 -32 17 -60 12 -88 -16 -22 -22 -25
-32 -20 -77 3 -37 11 -56 27 -69 25 -21 70 -24 88 -6 9 9 12 9 12 0 0 -7 7
-12 15 -12 13 0 15 18 13 127 -2 90 -7 128 -15 131 -9 2 -13 -10 -13 -43z"/>
<path d="M640 4603 c-15 -19 -18 -29 -9 -32 7 -2 18 4 24 13 18 24 81 22 88
-4 4 -16 -1 -21 -21 -26 -72 -15 -97 -29 -100 -57 -2 -16 2 -35 9 -43 13 -16
72 -19 100 -4 13 7 19 7 19 0 0 -5 6 -10 13 -10 11 0 13 19 11 82 -4 94 -14
108 -75 108 -29 0 -42 -6 -59 -27z"/>
<path d="M837 4624 c-11 -11 -8 -184 3 -184 6 0 10 24 10 54 0 75 13 106 44
106 34 0 39 -13 37 -91 -2 -57 1 -69 13 -69 17 0 19 11 16 70 0 20 4 48 9 63
9 23 16 28 39 25 27 -3 27 -4 30 -80 2 -60 6 -78 17 -78 12 0 15 17 15 83 0
51 -5 88 -12 95 -17 17 -63 15 -78 -3 -12 -14 -15 -14 -30 0 -22 20 -64 19
-81 -1 -12 -15 -14 -15 -19 1 -3 9 -9 13 -13 9z"/>
<path d="M1135 4605 c-19 -18 -25 -35 -25 -70 0 -58 32 -95 83 -95 51 0 78 27
84 82 5 42 3 50 -25 78 -39 38 -83 40 -117 5z"/>
<path d="M1749 4601 c-33 -33 -38 -75 -14 -120 24 -47 83 -56 129 -20 22 17
26 28 26 70 0 40 -5 55 -25 74 -34 35 -78 33 -116 -4z"/>
<path d="M2030 4501 c0 -110 2 -131 15 -131 11 0 15 12 15 47 0 37 3 44 12 35
15 -15 53 -16 78 -2 24 13 44 74 35 108 -14 58 -80 93 -113 60 -8 -8 -15 -8
-27 2 -13 11 -15 -2 -15 -119z"/>
<path d="M2439 4601 c-31 -31 -36 -61 -19 -107 15 -38 38 -53 83 -54 36 0 77
26 77 50 0 17 -25 11 -43 -10 -9 -11 -26 -20 -36 -20 -22 0 -64 47 -55 61 3 5
35 9 71 9 l66 0 -7 33 c-13 69 -86 89 -137 38z"/>
<path d="M2841 4613 c-27 -22 -41 -80 -29 -113 16 -44 38 -60 84 -60 35 0 47
5 64 28 18 22 19 28 7 30 -9 2 -25 -6 -36 -17 -12 -12 -27 -21 -34 -21 -22 0
-57 31 -57 51 0 17 7 19 71 19 l71 0 -7 28 c-16 65 -86 94 -134 55z"/>
<path d="M1650 4301 l0 -39 -43 5 c-39 5 -46 2 -65 -22 -33 -42 -30 -99 7
-136 33 -33 56 -36 83 -12 11 9 18 11 18 5 0 -7 7 -12 15 -12 13 0 15 21 15
125 0 104 -2 125 -15 125 -11 0 -15 -11 -15 -39z"/>
<path d="M1147 4323 c-4 -3 -7 -17 -7 -30 0 -20 -5 -23 -38 -23 -21 0 -43 -5
-50 -12 -9 -9 -12 -9 -12 0 0 7 -4 12 -10 12 -6 0 -10 -37 -10 -91 0 -68 3
-90 13 -87 7 3 13 27 14 63 2 75 7 85 38 85 14 0 25 4 25 10 0 5 7 7 15 4 10
-4 15 -27 17 -82 3 -76 3 -77 31 -80 29 -4 37 12 12 22 -11 4 -15 22 -15 71 0
51 3 65 15 65 8 0 15 5 15 10 0 6 -7 10 -15 10 -10 0 -15 10 -15 30 0 29 -9
38 -23 23z"/>
<path d="M377 4252 c-10 -10 -17 -22 -17 -25 0 -14 29 -7 38 9 14 25 76 15 80
-13 3 -18 -3 -23 -35 -28 -62 -11 -72 -15 -84 -36 -15 -29 -3 -55 32 -69 26
-11 36 -10 65 3 19 9 34 12 34 7 0 -6 6 -10 13 -10 15 0 11 148 -5 168 -17 19
-102 15 -121 -6z"/>
<path d="M825 4248 c-14 -21 -14 -23 1 -27 9 -1 21 4 26 13 11 20 61 21 78 1
17 -20 5 -33 -38 -41 -20 -3 -47 -13 -60 -21 -31 -19 -26 -62 10 -82 24 -14
30 -14 62 2 20 9 36 12 36 7 0 -6 7 -10 15 -10 12 0 15 15 15 73 0 90 -13 107
-83 107 -36 0 -49 -5 -62 -22z"/>
<path d="M1245 4247 c-39 -60 -23 -133 35 -157 35 -15 84 0 100 30 14 26 -13
33 -29 8 -18 -28 -72 -21 -88 12 l-12 25 69 3 c63 3 70 5 70 23 0 23 -18 61
-34 71 -6 4 -30 8 -53 8 -33 0 -46 -5 -58 -23z"/>
<path d="M1740 4248 c-23 -25 -28 -102 -7 -129 33 -43 84 -49 124 -15 23 20
26 27 15 37 -10 11 -15 9 -28 -9 -18 -27 -55 -29 -77 -4 -31 34 -21 42 48 42
64 0 65 0 65 28 0 15 -7 38 -16 50 -21 31 -95 31 -124 0z"/>
<path d="M1784 3975 c-4 -8 -4 -28 -2 -44 4 -26 2 -28 -13 -20 -57 30 -109
-11 -109 -85 0 -36 5 -52 25 -71 27 -28 66 -32 85 -10 11 13 14 13 26 -2 11
-15 13 2 14 115 0 84 -4 132 -10 132 -6 0 -13 -7 -16 -15z"/>
<path d="M580 3795 c0 -104 2 -125 15 -125 11 0 15 11 15 40 0 38 1 39 24 29
59 -27 113 27 103 103 -3 22 -13 48 -23 59 -19 21 -73 26 -92 7 -9 -9 -12 -9
-12 0 0 7 -7 12 -15 12 -13 0 -15 -21 -15 -125z"/>
<path d="M913 3898 c-29 -33 -36 -72 -19 -112 25 -60 84 -74 133 -32 24 20 28
32 27 70 -1 34 -7 53 -24 71 -31 33 -88 34 -117 3z"/>
<path d="M1100 3795 c0 -77 4 -125 10 -125 6 0 10 18 10 40 0 38 12 52 25 30
11 -18 56 -10 80 15 33 32 35 100 4 139 -22 28 -75 36 -97 14 -9 -9 -12 -9
-12 0 0 7 -4 12 -10 12 -6 0 -10 -48 -10 -125z"/>
<path d="M1385 3895 c-36 -35 -35 -106 1 -142 22 -21 32 -25 66 -20 58 8 73
27 73 93 0 47 -4 59 -24 75 -33 27 -86 25 -116 -6z"/>
<path d="M1879 3894 c-35 -37 -33 -108 5 -141 15 -13 40 -23 55 -23 28 0 81
33 81 51 0 15 -20 10 -46 -10 -14 -11 -33 -17 -44 -14 -20 5 -50 39 -50 55 0
5 32 8 70 8 68 0 70 1 70 25 0 67 -94 99 -141 49z"/>
<path d="M2629 3901 c-20 -16 -24 -28 -24 -76 0 -48 4 -60 24 -76 33 -27 86
-25 116 6 33 32 35 100 4 139 -26 32 -84 36 -120 7z"/>
<path d="M1677 3149 c-8 -5 -28 -10 -42 -11 -30 -3 -95 -72 -95 -101 0 -9 -10
-23 -22 -32 -20 -13 -23 -24 -22 -74 l1 -58 -73 -23 c-92 -28 -134 -74 -155
-170 -4 -19 -17 -73 -29 -120 -12 -47 -20 -110 -19 -140 1 -30 -1 -62 -4 -70
-3 -8 -8 -40 -11 -70 -3 -30 -8 -64 -11 -75 -6 -16 -5 -17 4 -5 14 19 14 9 0
-27 -19 -50 -48 -170 -47 -200 0 -15 -16 -68 -37 -118 -21 -49 -39 -106 -42
-125 -2 -19 -7 -46 -12 -60 -5 -14 -14 -50 -20 -80 -6 -30 -14 -66 -16 -80 -3
-14 -10 -50 -16 -80 -5 -30 -16 -71 -24 -91 -16 -41 -15 -273 1 -301 16 -29
86 -78 111 -78 35 0 67 41 69 87 2 52 14 84 28 77 6 -3 3 1 -7 9 -18 15 -18
16 2 27 14 7 21 7 21 0 0 -5 5 -10 11 -10 8 0 9 4 0 13 -6 8 -8 17 -4 20 12
13 23 7 23 -12 0 -14 6 -17 26 -13 l25 5 -23 24 c-13 14 -32 29 -42 35 -16 9
-18 7 -13 -10 8 -33 -17 -48 -41 -24 -10 10 -27 22 -38 27 -18 8 -18 9 4 12
16 3 22 12 23 34 2 47 4 54 16 52 5 -1 15 8 21 21 9 21 8 23 -9 19 -24 -7 -26
26 -4 86 8 22 12 41 10 41 -2 0 2 17 9 38 7 20 16 60 20 87 4 28 17 79 29 114
18 52 28 66 52 77 26 12 27 13 8 14 -28 0 -28 4 -4 38 10 15 22 37 25 50 4 13
15 22 27 22 10 0 19 4 19 9 0 5 9 13 20 16 11 3 20 12 20 20 0 22 30 45 59 45
19 0 36 -10 55 -32 29 -36 24 -50 -22 -51 -22 -1 -28 -5 -21 -13 6 -7 4 -16
-6 -24 -10 -9 -15 -9 -15 -1 0 6 5 11 12 11 26 0 -3 12 -34 14 -27 2 -34 -1
-34 -16 0 -10 6 -18 13 -18 8 0 10 7 6 18 -4 11 0 9 13 -7 16 -19 31 -24 81
-26 33 -1 66 -6 72 -10 7 -4 18 -2 25 5 11 9 14 5 12 -19 -3 -37 -9 -44 -44
-47 -15 -2 -70 -7 -122 -12 -52 -5 -114 -8 -138 -7 l-43 3 2 -47 c1 -26 1 -51
-2 -57 -7 -14 -4 -98 4 -111 6 -9 15 -7 37 5 17 9 30 20 30 25 0 4 10 5 23 2
12 -2 38 -7 57 -9 19 -3 56 -12 83 -20 26 -8 47 -12 47 -9 0 3 7 0 16 -7 8 -8
14 -25 12 -39 -2 -18 2 -25 11 -23 11 2 12 -6 8 -36 -4 -21 -3 -52 2 -70 7
-22 6 -32 -2 -35 -7 -3 -3 -11 11 -22 14 -10 22 -27 22 -45 0 -21 9 -36 33
-54 43 -33 72 -33 93 -1 18 27 16 51 -10 150 -21 82 -20 92 10 99 24 6 25 9
18 44 -18 79 0 182 32 182 10 0 14 5 11 14 -4 10 -1 13 7 10 7 -3 21 2 30 11
9 9 16 12 16 8 0 -5 16 -9 35 -9 22 1 31 4 25 10 -6 6 -10 14 -10 19 0 5 7 1
16 -7 19 -20 31 -20 31 -1 0 8 -9 17 -19 21 -24 7 -60 -5 -52 -18 4 -7 2 -8
-4 -4 -7 4 -12 13 -12 21 0 8 -11 12 -32 11 l-33 -1 0 105 c0 99 -2 109 -33
170 -32 63 -33 67 -22 125 6 33 18 82 26 109 8 27 14 72 14 98 0 46 22 108 38
108 4 0 13 14 19 30 9 25 17 30 45 30 36 0 78 30 78 55 0 26 -31 109 -54 145
-13 19 -38 58 -56 87 -28 44 -36 51 -51 43 -10 -6 -21 -15 -24 -20 -10 -16
-33 -11 -38 8 -3 12 -5 10 -6 -7 0 -13 -4 -22 -7 -18 -3 3 -19 -7 -35 -24 -23
-24 -33 -28 -60 -22 -34 7 -34 -1 -1 -39 19 -22 10 -45 -20 -51 l-23 -4 23 -2
c12 0 22 -4 23 -8 0 -5 2 -17 4 -28 2 -11 0 -37 -4 -57 -6 -26 -5 -37 3 -35
12 2 12 -3 2 -47 -6 -23 -4 -27 8 -23 21 8 20 1 -5 -39 -14 -24 -32 -37 -60
-44 -21 -6 -39 -16 -39 -22 0 -5 9 -8 19 -5 19 5 19 4 0 -29 -10 -19 -16 -41
-12 -50 5 -14 2 -16 -18 -10 -13 3 -44 9 -69 12 -39 5 -42 4 -25 -8 21 -13 26
-15 51 -17 25 -2 5 -21 -22 -21 -39 0 -63 17 -57 40 4 16 0 20 -19 20 -27 0
-48 17 -48 39 0 15 48 71 61 71 13 0 59 46 59 59 0 6 8 11 18 11 11 0 13 3 5
8 -18 11 -9 109 12 124 6 5 6 8 -1 8 -6 0 -9 13 -6 30 3 23 0 30 -12 30 -10 0
-14 -4 -11 -10 3 -5 -1 -10 -9 -10 -9 0 -16 4 -16 10 0 5 -7 7 -16 3 -12 -4
-9 -9 15 -19 21 -9 31 -20 31 -34 0 -12 -4 -19 -9 -16 -5 3 -8 -8 -7 -24 1
-19 -1 -27 -7 -21 -7 7 -17 7 -28 0 -15 -8 -20 -5 -25 16 -3 14 -10 23 -14 20
-5 -3 -6 3 -3 14 3 10 0 22 -7 26 -8 5 -7 11 2 23 11 13 11 14 -1 8 -9 -6 -12
-4 -9 5 3 8 18 18 34 23 16 4 37 12 46 17 26 13 36 11 41 -8 3 -12 5 -8 6 9 1
36 11 59 22 52 5 -3 9 0 9 5 0 6 4 11 9 11 21 0 71 59 71 84 0 28 17 33 52 15
11 -6 30 -8 41 -5 26 7 79 90 71 111 -4 10 0 15 15 15 l21 0 -23 36 c-26 43
-113 87 -140 73z m-280 -931 c37 -61 48 -98 39 -132 -5 -22 -11 -24 -48 -23
-37 2 -46 7 -69 42 -23 35 -34 77 -30 122 2 20 31 43 55 43 16 0 30 -14 53
-52z"/>
<path d="M2705 1671 c6 -11 4 -13 -7 -8 -18 6 -27 -14 -33 -73 -3 -19 -7 -52
-11 -72 -5 -34 -3 -38 15 -38 12 0 21 6 21 15 0 8 5 15 10 15 6 0 9 -3 9 -7
-4 -25 3 -35 21 -30 11 3 20 1 20 -4 0 -4 7 -6 15 -3 8 4 15 2 15 -4 0 -6 8
-9 18 -7 9 2 19 4 21 4 8 1 -19 26 -29 27 -6 1 -20 2 -32 3 -21 1 -21 1 -2 16
10 8 24 14 29 15 6 0 3 -5 -5 -10 -11 -7 -6 -9 19 -6 27 2 35 8 38 27 2 13 8
26 13 27 6 2 10 14 10 27 0 13 5 27 10 30 6 4 2 18 -10 36 -16 22 -25 27 -38
20 -24 -12 -94 -10 -111 3 -12 9 -13 8 -6 -3z"/>
<path d="M1817 1600 c2 -36 6 -73 8 -82 2 -10 -2 -18 -8 -18 -14 -1 33 -29 49
-30 6 0 17 12 24 28 8 15 23 35 35 45 11 10 16 17 10 16 -30 -4 -54 3 -59 17
-5 13 -4 14 7 6 19 -16 84 -25 92 -13 3 6 -3 16 -15 23 -11 7 -20 17 -20 22 0
4 6 3 13 -3 8 -6 17 -7 21 -3 4 4 7 3 6 -3 -4 -17 12 -55 22 -55 5 0 12 9 15
21 4 14 8 17 13 9 9 -14 30 -5 30 13 0 7 -4 6 -10 -3 -8 -12 -10 -10 -11 10
-1 14 -1 31 0 38 2 14 7 13 -89 18 -41 2 -89 5 -106 7 l-31 3 4 -66z"/>
<path d="M2277 1028 c-3 -18 -5 -51 -4 -72 2 -33 6 -40 27 -43 14 -2 52 -10
85 -17 33 -8 74 -17 90 -20 17 -3 68 -12 115 -20 163 -29 150 -30 150 15 0 30
-4 39 -17 39 -15 0 -14 2 3 15 19 14 18 14 -3 10 -12 -2 -29 5 -39 16 -18 20
-15 22 31 19 22 -1 27 1 19 10 -14 14 -121 23 -129 11 -3 -5 0 -13 6 -17 6 -3
15 0 20 7 7 12 10 12 21 0 7 -8 8 -11 2 -8 -7 4 -15 0 -18 -9 -3 -8 -2 -12 4
-9 15 9 60 -25 53 -41 -3 -8 -9 -14 -15 -14 -5 0 -6 6 -2 13 5 7 0 6 -11 -3
-17 -14 -18 -13 -13 2 4 10 1 19 -9 22 -11 4 -14 2 -10 -9 7 -17 -9 -30 -18
-15 -4 6 -16 10 -28 8 -14 -2 -22 2 -22 12 0 11 8 14 29 12 25 -3 27 -2 15 11
-8 8 -18 13 -22 10 -4 -3 -5 8 -2 24 l5 28 -11 -27 c-6 -16 -15 -28 -21 -28
-6 0 -7 8 -4 17 4 10 4 14 0 10 -4 -4 -12 -3 -18 3 -8 6 -12 3 -13 -11 -1 -11
2 -17 7 -14 12 8 22 -27 11 -38 -7 -7 -13 -5 -17 7 -6 15 -8 15 -21 -4 -11
-15 -18 -18 -27 -11 -7 6 -16 8 -19 4 -4 -3 -13 0 -21 6 -9 8 -16 8 -20 2 -4
-6 -14 -7 -23 -4 -11 5 -14 3 -8 -6 6 -10 3 -11 -14 -2 -12 7 -26 9 -31 6 -6
-3 -7 1 -4 10 5 12 10 13 17 6 15 -15 27 -14 21 3 -7 18 -34 14 -45 -7 -6 -9
-16 -14 -25 -10 -13 5 -13 7 -2 14 10 7 10 9 0 9 -9 0 -11 15 -8 55 5 59 -8
76 -17 23z"/>
<path d="M2268 854 c-5 -4 -8 -20 -8 -36 0 -25 2 -27 19 -19 14 8 20 7 25 -4
3 -9 0 -15 -9 -15 -9 0 -12 -6 -9 -15 4 -8 2 -15 -3 -15 -5 0 -10 -7 -10 -15
0 -11 4 -12 11 -5 33 33 34 -10 1 -82 -14 -29 -25 -64 -25 -76 0 -25 -33 -75
-47 -71 -4 2 -10 -6 -11 -15 -2 -10 0 -16 6 -12 5 3 16 -2 25 -12 13 -15 14
-26 2 -92 -21 -119 -61 -250 -81 -265 -17 -13 -17 -14 -2 -15 24 0 58 39 51
58 -4 8 -2 13 3 10 5 -3 10 12 11 35 2 22 7 43 11 46 5 3 9 24 10 45 1 22 7
43 13 46 6 4 10 10 10 14 -1 3 -1 14 -1 24 0 14 2 15 10 2 8 -13 10 -13 10 2
0 15 4 16 26 8 21 -8 25 -7 21 3 -3 8 3 13 14 14 23 2 36 -16 19 -27 -7 -5 -2
-8 14 -8 15 0 23 5 19 11 -3 6 -1 7 5 3 7 -4 12 -13 12 -20 0 -7 12 -13 28
-13 70 -1 83 -3 76 -15 -5 -7 -3 -8 7 -2 8 4 19 9 24 10 6 1 15 3 20 4 25 6
47 -1 42 -13 -3 -7 3 -13 13 -13 12 0 16 6 13 16 -4 9 1 7 10 -5 8 -11 19 -17
22 -13 4 4 16 3 26 -2 12 -7 20 -6 24 1 5 7 16 3 31 -12 22 -21 24 -46 2 -33
-7 4 -8 2 -4 -5 4 -6 12 -9 17 -6 5 4 9 -1 9 -9 0 -9 5 -16 10 -16 11 0 9 44
-10 195 -6 50 -13 126 -16 170 -2 44 -7 103 -10 131 l-5 51 -112 16 c-62 9
-147 24 -189 33 -43 9 -86 13 -95 9 -39 -16 -62 -14 -65 7 -2 11 -6 16 -10 12z"/>
</g>
</svg>
